#VRML V2.0 utf8
# 3D model generated by easyeda2kicad.py (https://github.com/uPesy/easyeda2kicad.py)

Shape{
    appearance Appearance {
        material  Material 	{
            diffuseColor 0.25098039215686274 0.25098039215686274 0.25098039215686274
            specularColor 0.12549019607843137 0.12549019607843137 0.12549019607843137
            ambientIntensity 0.251
            transparency 0.0
            shininess 0.5
        }
    }
    geometry IndexedFaceSet {
        ccw TRUE
        solid FALSE
        coord DEF co Coordinate {
            point [
                -0.0351 -1.1319 0.0079, -0.1693 -1.1319 0.0079, -0.0351 -0.7921 0.0079, -0.1693 -0.8917 0.0079, -0.8307 -1.1319 0.0079, -0.9843 -1.1319 0.0079, -0.8307 -0.8917 0.0079, -0.9843 -0.7921 0.0079, -0.6693 -0.8917 0.0079, -0.3307 -0.8917 0.0079, -0.6693 -1.1319 0.0079, -0.3307 -1.1319 0.0079, 0.9843 -1.1319 0.0079, 0.8307 -1.1319 0.0079, 0.9843 -0.7921 0.0079, 0.8307 -0.8917 0.0079, 0.6693 -0.8917 0.0079, 0.6693 -1.1319 0.0079, 0.3307 -1.1319 0.0079, 0.1282 -0.7921 0.0079, 0.1346 -0.793 0.0079, 0.1693 -0.8917 0.0079, 0.1389 -0.793 0.0079, 0.3307 -0.8917 0.0079, 0.1481 -0.7921 0.0079, -0.0351 -0.5925 0.0079, -0.0197 -0.7738 0.0079, -0.0197 -0.7911 0.0079, 0.0648 -0.7911 0.0079, 0.8701 -0.3957 0.0079, 0.9843 -0.3957 0.0079, 0.8701 -0.5925 0.0079, 0.0955 -0.783 0.0079, 0.0955 -0.7657 0.0079, 0.0648 -0.6336 0.0079, 0.1693 -1.1319 0.0079, 0.1123 -0.7899 0.0079, -0.0158 -0.6336 0.0079, -0.0158 -0.6509 0.0079, 0.0437 -0.7201 0.0079, 0.0437 -0.7738 0.0079, -0.012 -0.7201 0.0079, -0.012 -0.7028 0.0079, 0.0437 -0.7028 0.0079, 0.0437 -0.6509 0.0079, 0.3068 -0.7911 0.0079, 0.2261 -0.7911 0.0079, 0.1583 -0.791 0.0079, 0.1735 -0.7858 0.0079, 0.1479 -0.6508 0.0079, 0.1597 -0.655 0.0079, 0.0984 -0.7672 0.0079, 0.1706 -0.6623 0.0079, 0.1801 -0.6728 0.0079, 0.1916 -0.7141 0.0079, 0.19 -0.7311 0.0079, 0.1857 -0.7447 0.0079, 0.1507 -0.7741 0.0079, 0.136 -0.7758 0.0079, 0.1621 -0.7699 0.0079, 0.1718 -0.7634 0.0079, 0.1792 -0.7556 0.0079, 0.1151 -0.7734 0.0079, 0.1866 -0.685 0.0079, 0.1908 -0.7018 0.0079, 0.0955 -0.638 0.0079, 0.0955 -0.6591 0.0079, 0.1133 -0.6515 0.0079, 0.1324 -0.649 0.0079, 0.2044 -0.6751 0.0079, 0.1952 -0.6604 0.0079, 0.2857 -0.6336 0.0079, 0.1809 -0.6467 0.0079, 0.166 -0.6381 0.0079, 0.1862 -0.7777 0.0079, 0.198 -0.7652 0.0079, 0.2261 -0.7738 0.0079, 0.2064 -0.7503 0.0079, 0.2857 -0.7738 0.0079, 0.2112 -0.7336 0.0079, 0.2127 -0.7154 0.0079, 0.2104 -0.693 0.0079, 0.1484 -0.633 0.0079, 0.1326 -0.6317 0.0079, 0.1137 -0.633 0.0079, 0.3068 -0.6336 0.0079, -0.2117 -0.7911 0.0079, -0.1887 -0.7911 0.0079, -0.3078 -0.7911 0.0079, -0.2918 -0.747 0.0079, -0.2268 -0.747 0.0079, -0.3308 -0.7911 0.0079, -0.1693 -0.748 0.0079, -0.1603 -0.762 0.0079, -0.1473 -0.7745 0.0079, -0.1309 -0.784 0.0079, -0.0949 -0.6336 0.0079, -0.1176 -0.6361 0.0079, -0.2482 -0.6336 0.0079, -0.136 -0.6425 0.0079, -0.1532 -0.654 0.0079, -0.9843 -0.3957 0.0079, -0.8701 -0.3957 0.0079, -0.8701 -0.4744 0.0079, -0.752 -0.5925 0.0079, -0.1533 -0.6542 0.0079, -0.1645 -0.6665 0.0079, -0.1718 -0.6801 0.0079, -0.2694 -0.6336 0.0079, -0.1127 -0.7894 0.0079, -0.0932 -0.7911 0.0079, -0.0504 -0.7911 0.0079, -0.0504 -0.6336 0.0079, -0.176 -0.6956 0.0079, -0.1772 -0.7104 0.0079, -0.175 -0.7315 0.0079, 0.3307 0.9902 0.0079, 0.3307 1.2303 0.0079, 0.6693 0.9902 0.0079, 0.6693 1.2303 0.0079, -0.1693 0.9902 0.0079, -0.1693 1.2303 0.0079, 0.1693 0.9902 0.0079, 0.1693 1.2303 0.0079, -0.6693 0.9902 0.0079, -0.6693 1.2303 0.0079, -0.3307 0.9902 0.0079, -0.3307 1.2303 0.0079, -0.8701 -0.2972 0.0079, -0.9843 -0.2972 0.0079, -0.8701 0.9508 0.0079, -0.9843 1.2303 0.0079, -0.8307 0.9902 0.0079, -0.8307 1.2303 0.0079, 0.9843 -0.2972 0.0866, 0.9843 -0.2972 0.0079, 0.9843 1.2303 0.0079, 0.9843 -1.1319 0.4016, 0.9843 1.2303 0.4016, 0.9843 -0.3957 0.0866, 0.6693 1.2303 0.0866, -0.1693 1.2303 0.0866, -0.3307 1.2303 0.0866, -0.9843 1.2303 0.4016, 0.8307 1.2303 0.0079, 0.3307 1.2303 0.0866, 0.1693 1.2303 0.0866, 0.8307 1.2303 0.0866, -0.8307 1.2303 0.0866, -0.6693 1.2303 0.0866, -0.9843 -0.3957 0.0866, -0.9843 -1.1319 0.4016, -0.9843 -0.2972 0.0866, -0.8307 -1.1319 0.0866, -0.6693 -1.1319 0.0866, -0.1693 -1.1319 0.0866, 0.1693 -1.1319 0.0866, 0.3307 -1.1319 0.0866, -0.3307 -1.1319 0.0866, 0.8307 -1.1319 0.0866, 0.6693 -1.1319 0.0866, -0.6767 -0.8806 0.4016, -0.6791 -0.8989 0.4016, -0.6862 -0.916 0.4016, -0.6975 -0.9306 0.4016, -0.7658 -0.8123 0.4016, -0.7829 -0.8193 0.4016, -0.7975 -0.8306 0.4016, -0.7475 -0.8098 0.4016, -0.7292 -0.8123 0.4016, -0.7121 -0.8193 0.4016, -0.7658 -0.9489 0.4016, -0.7829 -0.9419 0.4016, -0.7975 -0.9306 0.4016, -0.8088 -0.916 0.4016, -0.8158 -0.8989 0.4016, -0.6975 -0.8306 0.4016, -0.6862 -0.8452 0.4016, -0.6791 -0.8623 0.4016, -0.7121 -0.9419 0.4016, -0.7292 -0.9489 0.4016, -0.7475 -0.9514 0.4016, -0.8182 -0.8806 0.4016, -0.8158 -0.8623 0.4016, -0.8088 -0.8452 0.4016, 0.8307 0.9902 0.0079, 0.8701 0.9508 0.0079, 0.8701 -0.2972 0.0079
            ]
        }
        coordIndex [
            0,1,2,-1,2,1,3,-1,4,5,6,-1,6,5,7,-1,6,7,8,-1,8,7,9,-1,8,9,10,-1,10,9,11,-1,12,13,14,-1,14,13,15,-1,14,15,16,-1,16,17,18,-1,19,20,21,-1,21,20,22,-1,21,22,23,-1,23,22,24,-1,25,26,2,-1,2,26,27,-1,2,27,28,-1,29,30,31,-1,31,30,14,-1,32,28,33,-1,33,28,34,-1,35,0,21,-1,21,0,2,-1,21,2,19,-1,19,2,28,-1,19,28,36,-1,36,28,32,-1,34,37,25,-1,25,37,38,-1,25,38,26,-1,39,40,41,-1,41,40,26,-1,41,26,42,-1,42,26,38,-1,42,38,43,-1,43,38,44,-1,45,24,46,-1,46,24,47,-1,46,47,48,-1,49,50,51,-1,51,50,52,-1,51,52,53,-1,54,55,51,-1,51,55,56,-1,57,58,59,-1,59,58,60,-1,56,61,51,-1,51,61,60,-1,51,60,62,-1,62,60,58,-1,53,63,51,-1,51,63,64,-1,51,64,54,-1,25,65,34,-1,34,65,66,-1,34,66,33,-1,33,66,67,-1,33,67,51,-1,51,67,68,-1,51,68,49,-1,69,70,71,-1,71,70,72,-1,71,72,73,-1,48,74,46,-1,46,74,75,-1,46,75,76,-1,76,75,77,-1,76,77,78,-1,77,79,78,-1,78,79,80,-1,78,80,71,-1,71,80,81,-1,71,81,69,-1,82,83,25,-1,25,83,84,-1,25,84,65,-1,73,82,71,-1,71,82,25,-1,71,25,85,-1,85,25,31,-1,85,31,45,-1,45,31,14,-1,45,14,24,-1,24,14,16,-1,24,16,23,-1,23,16,18,-1,86,87,2,-1,88,89,90,-1,90,86,88,-1,88,86,2,-1,88,2,91,-1,92,93,87,-1,87,93,94,-1,87,94,95,-1,96,97,25,-1,98,99,100,-1,101,102,7,-1,7,102,103,-1,7,103,104,-1,100,105,98,-1,98,105,106,-1,98,106,107,-1,3,9,2,-1,2,9,7,-1,2,7,91,-1,91,7,104,-1,91,104,108,-1,108,104,25,-1,108,25,98,-1,98,25,97,-1,98,97,99,-1,95,109,87,-1,87,109,110,-1,87,110,2,-1,2,110,111,-1,2,111,25,-1,25,111,112,-1,25,112,96,-1,107,113,98,-1,98,113,114,-1,98,114,87,-1,87,114,115,-1,87,115,92,-1,116,117,118,-1,118,117,119,-1,120,121,122,-1,122,121,123,-1,124,125,126,-1,126,125,127,-1,128,129,130,-1,130,129,131,-1,130,131,132,-1,132,131,133,-1,134,135,136,-1,137,12,14,-1,136,138,134,-1,134,138,137,-1,134,137,139,-1,139,137,14,-1,139,14,30,-1,140,119,117,-1,141,142,143,-1,138,136,144,-1,138,145,146,-1,123,121,146,-1,146,121,141,-1,146,141,138,-1,138,141,143,-1,144,147,138,-1,138,147,140,-1,138,140,145,-1,145,140,117,-1,133,131,148,-1,148,131,143,-1,148,143,149,-1,149,143,142,-1,149,142,125,-1,125,142,127,-1,150,151,152,-1,152,151,143,-1,152,143,129,-1,129,143,131,-1,150,101,151,-1,151,101,7,-1,151,7,5,-1,151,5,4,-1,4,153,151,-1,151,153,154,-1,151,154,137,-1,155,1,0,-1,156,157,137,-1,10,11,154,-1,154,11,158,-1,154,158,137,-1,137,158,155,-1,137,155,156,-1,156,155,0,-1,156,0,35,-1,13,12,159,-1,159,12,137,-1,159,137,160,-1,160,137,157,-1,160,157,17,-1,17,157,18,-1,161,162,137,-1,137,162,163,-1,137,163,164,-1,165,143,166,-1,166,143,167,-1,165,168,143,-1,143,168,169,-1,143,169,138,-1,138,169,170,-1,171,172,151,-1,172,173,151,-1,151,173,174,-1,151,174,175,-1,170,176,138,-1,138,176,177,-1,138,177,137,-1,137,177,178,-1,137,178,161,-1,164,179,137,-1,137,179,180,-1,137,180,151,-1,151,180,181,-1,151,181,171,-1,175,182,151,-1,151,182,183,-1,151,183,143,-1,143,183,184,-1,143,184,167,-1,185,144,186,-1,186,144,136,-1,186,136,187,-1,187,136,135,-1,
        ]
    }
}
Shape{
    appearance Appearance {
        material  Material 	{
            diffuseColor 0.7529411764705882 0.7529411764705882 0.7529411764705882
            specularColor 0.3764705882352941 0.3764705882352941 0.3764705882352941
            ambientIntensity 0.7529
            transparency 0.0
            shininess 0.5
        }
    }
    geometry IndexedFaceSet {
        ccw TRUE
        solid FALSE
        coord DEF co Coordinate {
            point [
                -0.6767 -0.8806 0.4012, -0.6767 -0.8806 0.4016, -0.6791 -0.8623 0.4012, -0.6791 -0.8623 0.4016, -0.6862 -0.8452 0.4012, -0.6862 -0.8452 0.4016, -0.6975 -0.8306 0.4012, -0.6975 -0.8306 0.4016, -0.7121 -0.8193 0.4012, -0.7121 -0.8193 0.4016, -0.7292 -0.8123 0.4012, -0.7292 -0.8123 0.4016, -0.7475 -0.8098 0.4012, -0.7475 -0.8098 0.4016, -0.7658 -0.8123 0.4012, -0.7658 -0.8123 0.4016, -0.7829 -0.8193 0.4012, -0.7829 -0.8193 0.4016, -0.7975 -0.8306 0.4012, -0.7975 -0.8306 0.4016, -0.8088 -0.8452 0.4012, -0.8088 -0.8452 0.4016, -0.8158 -0.8623 0.4012, -0.8158 -0.8623 0.4016, -0.8182 -0.8806 0.4012, -0.8182 -0.8806 0.4016, -0.8158 -0.8989 0.4012, -0.8158 -0.8989 0.4016, -0.8088 -0.916 0.4012, -0.8088 -0.916 0.4016, -0.7975 -0.9306 0.4012, -0.7975 -0.9306 0.4016, -0.7829 -0.9419 0.4012, -0.7829 -0.9419 0.4016, -0.7658 -0.9489 0.4012, -0.7658 -0.9489 0.4016, -0.7475 -0.9514 0.4012, -0.7475 -0.9514 0.4016, -0.7292 -0.9489 0.4012, -0.7292 -0.9489 0.4016, -0.7121 -0.9419 0.4012, -0.7121 -0.9419 0.4016, -0.6975 -0.9306 0.4012, -0.6975 -0.9306 0.4016, -0.6862 -0.916 0.4012, -0.6862 -0.916 0.4016, -0.6791 -0.8989 0.4012, -0.6791 -0.8989 0.4016, -0.7475 -0.8806 0.4012
            ]
        }
        coordIndex [
            0,1,2,-1,2,1,3,-1,2,3,4,-1,4,3,5,-1,4,5,6,-1,6,5,7,-1,6,7,8,-1,8,7,9,-1,8,9,10,-1,10,9,11,-1,10,11,12,-1,12,11,13,-1,12,13,14,-1,14,13,15,-1,14,15,16,-1,16,15,17,-1,16,17,18,-1,18,17,19,-1,18,19,20,-1,20,19,21,-1,20,21,22,-1,22,21,23,-1,22,23,24,-1,24,23,25,-1,24,25,26,-1,26,25,27,-1,26,27,28,-1,28,27,29,-1,28,29,30,-1,30,29,31,-1,30,31,32,-1,32,31,33,-1,32,33,34,-1,34,33,35,-1,34,35,36,-1,36,35,37,-1,36,37,38,-1,38,37,39,-1,38,39,40,-1,40,39,41,-1,40,41,42,-1,42,41,43,-1,42,43,44,-1,44,43,45,-1,44,45,46,-1,46,45,47,-1,46,47,0,-1,0,47,1,-1,44,46,48,-1,48,46,0,-1,48,0,2,-1,38,40,48,-1,48,40,42,-1,48,42,44,-1,32,34,48,-1,48,34,36,-1,48,36,38,-1,26,28,48,-1,48,28,30,-1,48,30,32,-1,20,22,48,-1,48,22,24,-1,48,24,26,-1,14,16,48,-1,48,16,18,-1,48,18,20,-1,8,10,48,-1,48,10,12,-1,48,12,14,-1,2,4,48,-1,48,4,6,-1,48,6,8,-1,
        ]
    }
}
Shape{
    appearance Appearance {
        material  Material 	{
            diffuseColor 1.0 1.0 1.0
            specularColor 0.5019607843137255 0.5019607843137255 0.5019607843137255
            ambientIntensity 1.0
            transparency 0.0
            shininess 0.5
        }
    }
    geometry IndexedFaceSet {
        ccw TRUE
        solid FALSE
        coord DEF co Coordinate {
            point [
                -0.8307 -1.1358 0.0866, -0.6693 -1.1358 0.0866, -0.8307 -1.1319 0.0866, -0.6693 -1.1319 0.0866, -0.6693 -1.1319 0.0079, -0.6693 -1.1358 0.0, -0.6693 -0.8917 0.0079, -0.6693 -0.8917 0.0, -0.8307 -0.8917 0.0, -0.8307 -0.8917 0.0079, -0.8307 -1.1319 0.0079, -0.8307 -1.1358 0.0, -0.3307 -1.1319 0.0866, -0.3307 -1.1358 0.0866, -0.1693 -1.1319 0.0866, -0.1693 -1.1358 0.0866, -0.1693 -1.1319 0.0079, -0.1693 -1.1358 0.0, -0.1693 -0.8917 0.0079, -0.1693 -0.8917 0.0, -0.3307 -0.8917 0.0, -0.3307 -0.8917 0.0079, -0.3307 -1.1319 0.0079, -0.3307 -1.1358 0.0, -0.6693 1.2342 0.0866, -0.8307 1.2342 0.0866, -0.6693 1.2303 0.0866, -0.8307 1.2303 0.0866, -0.6693 0.9902 0.0079, -0.6693 0.9902 0.0, -0.6693 1.2303 0.0079, -0.6693 1.2342 0.0, -0.8307 1.2303 0.0079, -0.8307 1.2342 0.0, -0.8307 0.9902 0.0079, -0.8307 0.9902 0.0, 0.8307 0.9902 0.0, 0.8701 0.9508 0.0, 0.8701 -0.2972 0.0, -0.3307 0.9902 0.0, -0.3307 1.2342 0.0, -0.1693 1.2342 0.0, 0.1693 1.2342 0.0, 0.3307 1.2342 0.0, 0.1693 0.9902 0.0, 0.3307 0.9902 0.0, 0.6693 0.9902 0.0, 0.6693 1.2342 0.0, 0.8307 1.2342 0.0, -0.1693 0.9902 0.0, -0.8701 -0.2972 0.0, -0.8701 0.9508 0.0, 0.8701 -0.3957 0.0, 0.8701 -0.5925 0.0, -0.752 -0.5925 0.0, 0.9882 -0.2972 0.0, 0.9882 -0.3957 0.0, -0.9882 -0.3957 0.0, -0.9882 -0.2972 0.0, -0.8701 -0.3957 0.0, -0.8701 -0.4744 0.0, 0.1693 -1.1319 0.0866, 0.1693 -1.1358 0.0866, 0.3307 -1.1319 0.0866, 0.3307 -1.1358 0.0866, 0.3307 -1.1319 0.0079, 0.3307 -1.1358 0.0, 0.3307 -0.8917 0.0079, 0.3307 -0.8917 0.0, 0.1693 -0.8917 0.0, 0.1693 -0.8917 0.0079, 0.1693 -1.1319 0.0079, 0.1693 -1.1358 0.0, 0.6693 -1.1319 0.0866, 0.6693 -1.1358 0.0866, 0.8307 -1.1319 0.0866, 0.8307 -1.1358 0.0866, 0.8307 -1.1319 0.0079, 0.8307 -1.1358 0.0, 0.8307 -0.8917 0.0079, 0.8307 -0.8917 0.0, 0.6693 -0.8917 0.0, 0.6693 -0.8917 0.0079, 0.6693 -1.1319 0.0079, 0.6693 -1.1358 0.0, -0.1693 1.2303 0.0866, -0.1693 1.2342 0.0866, -0.3307 1.2303 0.0866, -0.3307 1.2342 0.0866, -0.3307 1.2303 0.0079, -0.3307 0.9902 0.0079, -0.1693 0.9902 0.0079, -0.1693 1.2303 0.0079, 0.8307 1.2303 0.0866, 0.8307 1.2342 0.0866, 0.6693 1.2303 0.0866, 0.6693 1.2342 0.0866, 0.6693 1.2303 0.0079, 0.6693 0.9902 0.0079, 0.8307 0.9902 0.0079, 0.8307 1.2303 0.0079, 0.3307 1.2303 0.0866, 0.3307 1.2342 0.0866, 0.1693 1.2303 0.0866, 0.1693 1.2342 0.0866, 0.1693 1.2303 0.0079, 0.1693 0.9902 0.0079, 0.3307 0.9902 0.0079, 0.3307 1.2303 0.0079, 0.9843 -0.3957 0.0866, 0.9882 -0.3957 0.0866, 0.9843 -0.2972 0.0866, 0.9882 -0.2972 0.0866, -0.9843 -0.2972 0.0866, -0.9882 -0.2972 0.0866, -0.9843 -0.3957 0.0866, -0.9882 -0.3957 0.0866, -0.8701 0.9508 0.0079, -0.8701 -0.2972 0.0079, -0.9843 -0.2972 0.0079, -0.9843 -0.3957 0.0079, -0.8701 -0.3957 0.0079, -0.8701 -0.4744 0.0079, -0.752 -0.5925 0.0079, -0.0351 -0.5925 0.0079, 0.8701 -0.5925 0.0079, 0.8701 -0.3957 0.0079, 0.9843 -0.3957 0.0079, 0.9843 -0.2972 0.0079, 0.8701 -0.2972 0.0079, 0.8701 0.9508 0.0079
            ]
        }
        coordIndex [
            0,1,2,-1,2,1,3,-1,3,1,4,-1,4,1,5,-1,4,5,6,-1,6,5,7,-1,7,8,6,-1,6,8,9,-1,9,8,10,-1,10,8,11,-1,10,11,2,-1,2,11,0,-1,5,1,11,-1,11,1,0,-1,11,8,5,-1,5,8,7,-1,12,13,14,-1,14,13,15,-1,14,15,16,-1,16,15,17,-1,16,17,18,-1,18,17,19,-1,19,20,18,-1,18,20,21,-1,21,20,22,-1,22,20,23,-1,22,23,12,-1,12,23,13,-1,17,15,23,-1,23,15,13,-1,20,19,23,-1,23,19,17,-1,24,25,26,-1,26,25,27,-1,28,29,30,-1,30,29,31,-1,30,31,26,-1,26,31,24,-1,27,25,32,-1,32,25,33,-1,32,33,34,-1,34,33,35,-1,33,25,31,-1,31,25,24,-1,36,37,38,-1,39,40,41,-1,33,31,35,-1,35,31,29,-1,42,43,44,-1,44,43,45,-1,46,47,48,-1,41,49,39,-1,39,49,50,-1,39,50,29,-1,29,50,51,-1,29,51,35,-1,52,53,54,-1,48,36,46,-1,46,36,38,-1,46,38,45,-1,55,56,38,-1,38,56,52,-1,38,52,45,-1,57,58,59,-1,59,58,50,-1,54,60,52,-1,52,60,59,-1,52,59,45,-1,45,59,50,-1,45,50,44,-1,44,50,49,-1,61,62,63,-1,63,62,64,-1,63,64,65,-1,65,64,66,-1,65,66,67,-1,67,66,68,-1,68,69,67,-1,67,69,70,-1,70,69,71,-1,71,69,72,-1,71,72,61,-1,61,72,62,-1,66,64,72,-1,72,64,62,-1,69,68,72,-1,72,68,66,-1,73,74,75,-1,75,74,76,-1,75,76,77,-1,77,76,78,-1,77,78,79,-1,79,78,80,-1,80,81,79,-1,79,81,82,-1,82,81,83,-1,83,81,84,-1,83,84,73,-1,73,84,74,-1,78,76,84,-1,84,76,74,-1,81,80,84,-1,84,80,78,-1,85,86,87,-1,87,86,88,-1,87,88,89,-1,89,88,40,-1,89,40,90,-1,90,40,39,-1,91,49,92,-1,92,49,41,-1,92,41,85,-1,85,41,86,-1,40,88,41,-1,41,88,86,-1,93,94,95,-1,95,94,96,-1,95,96,97,-1,97,96,47,-1,97,47,98,-1,98,47,46,-1,99,36,100,-1,100,36,48,-1,100,48,93,-1,93,48,94,-1,47,96,48,-1,48,96,94,-1,101,102,103,-1,103,102,104,-1,103,104,105,-1,105,104,42,-1,105,42,106,-1,106,42,44,-1,107,45,108,-1,108,45,43,-1,108,43,101,-1,101,43,102,-1,42,104,43,-1,43,104,102,-1,109,110,111,-1,111,110,112,-1,113,114,115,-1,115,114,116,-1,51,50,117,-1,117,50,118,-1,118,50,119,-1,119,50,58,-1,119,58,113,-1,113,58,114,-1,115,116,120,-1,120,116,57,-1,120,57,121,-1,121,57,59,-1,122,121,60,-1,60,121,59,-1,123,54,124,-1,124,54,53,-1,124,53,125,-1,53,52,125,-1,125,52,126,-1,126,52,127,-1,127,52,56,-1,127,56,109,-1,109,56,110,-1,111,112,128,-1,128,112,55,-1,128,55,129,-1,129,55,38,-1,38,37,129,-1,129,37,130,-1,35,51,34,-1,34,51,117,-1,37,36,130,-1,130,36,99,-1,44,49,106,-1,106,49,91,-1,39,29,90,-1,90,29,28,-1,46,45,98,-1,98,45,107,-1,57,116,58,-1,58,116,114,-1,55,112,56,-1,56,112,110,-1,60,54,122,-1,122,54,123,-1,
        ]
    }
}
Shape{
    appearance Appearance {
        material  Material 	{
            diffuseColor 0.0 0.0 0.0
            specularColor 0.0 0.0 0.0
            ambientIntensity 0.0
            transparency 0.0
            shininess 0.5
        }
    }
    geometry IndexedFaceSet {
        ccw TRUE
        solid FALSE
        coord DEF co Coordinate {
            point [
                -0.2694 -0.6336 0.0083, -0.3308 -0.7911 0.0083, -0.2694 -0.6336 0.0079, -0.3308 -0.7911 0.0079, -0.3078 -0.7911 0.0083, -0.3078 -0.7911 0.0079, -0.2918 -0.747 0.0083, -0.2918 -0.747 0.0079, -0.2268 -0.747 0.0083, -0.2268 -0.747 0.0079, -0.2117 -0.7911 0.0083, -0.2117 -0.7911 0.0079, -0.1887 -0.7911 0.0083, -0.1887 -0.7911 0.0079, -0.2482 -0.6336 0.0083, -0.2482 -0.6336 0.0079, -0.2321 -0.7297 0.0083, -0.2847 -0.7297 0.0083, -0.2556 -0.6639 0.0083, -0.2571 -0.6584 0.0083, -0.2581 -0.6528 0.0083, -0.2586 -0.6528 0.0083, -0.2596 -0.6584 0.0083, -0.261 -0.6639 0.0083, -0.2321 -0.7297 0.0079, -0.2847 -0.7297 0.0079, -0.2556 -0.6639 0.0079, -0.2571 -0.6584 0.0079, -0.2581 -0.6528 0.0079, -0.2586 -0.6528 0.0079, -0.2596 -0.6584 0.0079, -0.261 -0.6639 0.0079, -0.0932 -0.7911 0.0083, -0.0504 -0.7911 0.0083, -0.0932 -0.7911 0.0079, -0.0504 -0.7911 0.0079, -0.0504 -0.6336 0.0083, -0.0504 -0.6336 0.0079, -0.0949 -0.6336 0.0083, -0.0949 -0.6336 0.0079, -0.1772 -0.7104 0.0083, -0.1772 -0.7104 0.0079, -0.176 -0.6956 0.0079, -0.176 -0.6956 0.0083, -0.1718 -0.6801 0.0079, -0.1718 -0.6801 0.0083, -0.1645 -0.6665 0.0079, -0.1645 -0.6665 0.0083, -0.1533 -0.6542 0.0079, -0.1533 -0.6542 0.0083, -0.1532 -0.654 0.0079, -0.1532 -0.654 0.0083, -0.136 -0.6425 0.0079, -0.136 -0.6425 0.0083, -0.1176 -0.6361 0.0079, -0.1176 -0.6361 0.0083, -0.1127 -0.7894 0.0079, -0.1127 -0.7894 0.0083, -0.1309 -0.784 0.0079, -0.1309 -0.784 0.0083, -0.1473 -0.7745 0.0079, -0.1473 -0.7745 0.0083, -0.1603 -0.762 0.0079, -0.1603 -0.762 0.0083, -0.1693 -0.748 0.0079, -0.1693 -0.748 0.0083, -0.175 -0.7315 0.0079, -0.175 -0.7315 0.0083, -0.1456 -0.673 0.0083, -0.1379 -0.6649 0.0083, -0.1264 -0.6575 0.0083, -0.1134 -0.6529 0.0083, -0.0948 -0.6509 0.0083, -0.0715 -0.6509 0.0083, -0.0715 -0.7738 0.0083, -0.0939 -0.7738 0.0083, -0.1105 -0.7723 0.0083, -0.1238 -0.7682 0.0083, -0.1345 -0.7618 0.0083, -0.1433 -0.7531 0.0083, -0.15 -0.7422 0.0083, -0.1546 -0.7274 0.0083, -0.156 -0.7109 0.0083, -0.1547 -0.6952 0.0083, -0.151 -0.6827 0.0083, -0.0948 -0.6509 0.0079, -0.0715 -0.6509 0.0079, -0.1134 -0.6529 0.0079, -0.1264 -0.6575 0.0079, -0.1379 -0.6649 0.0079, -0.1456 -0.673 0.0079, -0.151 -0.6827 0.0079, -0.1547 -0.6952 0.0079, -0.156 -0.7109 0.0079, -0.1546 -0.7274 0.0079, -0.15 -0.7422 0.0079, -0.1433 -0.7531 0.0079, -0.1345 -0.7618 0.0079, -0.1238 -0.7682 0.0079, -0.1105 -0.7723 0.0079, -0.0939 -0.7738 0.0079, -0.0715 -0.7738 0.0079, -0.0197 -0.7738 0.0083, -0.0197 -0.7911 0.0083, -0.0197 -0.7738 0.0079, -0.0197 -0.7911 0.0079, 0.0648 -0.7911 0.0083, 0.0648 -0.7911 0.0079, 0.0648 -0.6336 0.0083, 0.0648 -0.6336 0.0079, -0.0158 -0.6336 0.0083, -0.0158 -0.6336 0.0079, -0.0158 -0.6509 0.0083, -0.0158 -0.6509 0.0079, 0.0437 -0.6509 0.0083, 0.0437 -0.6509 0.0079, 0.0437 -0.7028 0.0083, 0.0437 -0.7028 0.0079, -0.012 -0.7028 0.0083, -0.012 -0.7028 0.0079, -0.012 -0.7201 0.0083, -0.012 -0.7201 0.0079, 0.0437 -0.7201 0.0083, 0.0437 -0.7201 0.0079, 0.0437 -0.7738 0.0083, 0.0437 -0.7738 0.0079, 0.0955 -0.7657 0.0083, 0.0955 -0.783 0.0083, 0.0955 -0.7657 0.0079, 0.0955 -0.783 0.0079, 0.1123 -0.7899 0.0083, 0.1389 -0.793 0.0083, 0.1389 -0.793 0.0079, 0.1346 -0.793 0.0079, 0.1346 -0.793 0.0083, 0.1282 -0.7921 0.0079, 0.1123 -0.7899 0.0079, 0.1481 -0.7921 0.0079, 0.1583 -0.791 0.0083, 0.1583 -0.791 0.0079, 0.1735 -0.7858 0.0083, 0.1735 -0.7858 0.0079, 0.1862 -0.7777 0.0083, 0.1862 -0.7777 0.0079, 0.198 -0.7652 0.0083, 0.198 -0.7652 0.0079, 0.2064 -0.7503 0.0083, 0.2064 -0.7503 0.0079, 0.2112 -0.7336 0.0083, 0.2112 -0.7336 0.0079, 0.2127 -0.7154 0.0083, 0.2127 -0.7154 0.0079, 0.1326 -0.6317 0.0083, 0.1326 -0.6317 0.0079, 0.1484 -0.633 0.0079, 0.1484 -0.633 0.0083, 0.166 -0.6381 0.0079, 0.166 -0.6381 0.0083, 0.1809 -0.6467 0.0079, 0.1809 -0.6467 0.0083, 0.1952 -0.6604 0.0079, 0.1952 -0.6604 0.0083, 0.2044 -0.6751 0.0079, 0.2044 -0.6751 0.0083, 0.2104 -0.693 0.0079, 0.2104 -0.693 0.0083, 0.0955 -0.638 0.0083, 0.0955 -0.638 0.0079, 0.1137 -0.633 0.0079, 0.1137 -0.633 0.0083, 0.0955 -0.6591 0.0083, 0.0955 -0.6591 0.0079, 0.1324 -0.649 0.0083, 0.1324 -0.649 0.0079, 0.1133 -0.6515 0.0079, 0.1133 -0.6515 0.0083, 0.1916 -0.7141 0.0083, 0.1916 -0.7141 0.0079, 0.1908 -0.7018 0.0079, 0.1908 -0.7018 0.0083, 0.1866 -0.685 0.0079, 0.1866 -0.685 0.0083, 0.1801 -0.6728 0.0079, 0.1801 -0.6728 0.0083, 0.1706 -0.6623 0.0079, 0.1706 -0.6623 0.0083, 0.1597 -0.655 0.0079, 0.1597 -0.655 0.0083, 0.1479 -0.6508 0.0079, 0.1479 -0.6508 0.0083, 0.136 -0.7758 0.0083, 0.136 -0.7758 0.0079, 0.1507 -0.7741 0.0079, 0.1507 -0.7741 0.0083, 0.1621 -0.7699 0.0079, 0.1621 -0.7699 0.0083, 0.1718 -0.7634 0.0079, 0.1718 -0.7634 0.0083, 0.1792 -0.7556 0.0079, 0.1792 -0.7556 0.0083, 0.1857 -0.7447 0.0079, 0.1857 -0.7447 0.0083, 0.19 -0.7311 0.0079, 0.19 -0.7311 0.0083, 0.0984 -0.7672 0.0079, 0.0984 -0.7672 0.0083, 0.1151 -0.7734 0.0079, 0.1151 -0.7734 0.0083, 0.2261 -0.7738 0.0083, 0.2261 -0.7911 0.0083, 0.2261 -0.7738 0.0079, 0.2261 -0.7911 0.0079, 0.3068 -0.7911 0.0083, 0.3068 -0.7911 0.0079, 0.3068 -0.6336 0.0083, 0.3068 -0.6336 0.0079, 0.2857 -0.6336 0.0083, 0.2857 -0.6336 0.0079, 0.2857 -0.7738 0.0083, 0.2857 -0.7738 0.0079
            ]
        }
        coordIndex [
            0,1,2,-1,2,1,3,-1,1,4,3,-1,3,4,5,-1,4,6,5,-1,5,6,7,-1,6,8,7,-1,7,8,9,-1,8,10,9,-1,9,10,11,-1,10,12,11,-1,11,12,13,-1,12,14,13,-1,13,14,15,-1,14,0,15,-1,15,0,2,-1,16,8,17,-1,17,8,6,-1,18,14,16,-1,16,14,12,-1,16,12,8,-1,8,12,10,-1,18,19,14,-1,14,19,20,-1,14,20,0,-1,0,20,21,-1,0,21,22,-1,22,23,0,-1,0,23,17,-1,0,17,1,-1,1,17,6,-1,1,6,4,-1,16,17,24,-1,24,17,25,-1,18,16,26,-1,26,16,24,-1,18,26,27,-1,18,27,19,-1,19,27,28,-1,19,28,20,-1,21,20,29,-1,29,20,28,-1,21,29,30,-1,21,30,22,-1,22,30,31,-1,22,31,23,-1,17,23,25,-1,25,23,31,-1,32,33,34,-1,34,33,35,-1,33,36,35,-1,35,36,37,-1,36,38,37,-1,37,38,39,-1,40,41,42,-1,40,42,43,-1,43,42,44,-1,43,44,45,-1,45,44,46,-1,45,46,47,-1,47,46,48,-1,47,48,49,-1,49,48,50,-1,49,50,51,-1,51,50,52,-1,51,52,53,-1,53,52,54,-1,53,54,55,-1,55,54,39,-1,55,39,38,-1,32,34,56,-1,32,56,57,-1,57,56,58,-1,57,58,59,-1,59,58,60,-1,59,60,61,-1,61,60,62,-1,61,62,63,-1,63,62,64,-1,63,64,65,-1,65,64,66,-1,65,66,67,-1,67,66,41,-1,67,41,40,-1,45,47,68,-1,68,47,49,-1,68,49,69,-1,69,49,51,-1,69,51,70,-1,70,51,53,-1,70,53,71,-1,71,53,55,-1,71,55,72,-1,72,55,38,-1,72,38,73,-1,73,38,36,-1,73,36,74,-1,74,36,33,-1,74,33,75,-1,75,33,32,-1,75,32,76,-1,76,32,57,-1,76,57,77,-1,77,57,59,-1,77,59,78,-1,78,59,61,-1,78,61,79,-1,79,61,63,-1,79,63,80,-1,80,63,65,-1,80,65,81,-1,81,65,67,-1,81,67,82,-1,82,67,40,-1,82,40,83,-1,83,40,43,-1,83,43,84,-1,84,43,45,-1,84,45,68,-1,72,73,85,-1,85,73,86,-1,72,85,87,-1,72,87,71,-1,71,87,88,-1,71,88,70,-1,70,88,89,-1,70,89,69,-1,69,89,90,-1,69,90,68,-1,68,90,91,-1,68,91,84,-1,84,91,92,-1,84,92,83,-1,83,92,93,-1,83,93,82,-1,82,93,94,-1,82,94,81,-1,81,94,95,-1,81,95,80,-1,80,95,96,-1,80,96,79,-1,79,96,97,-1,79,97,78,-1,78,97,98,-1,78,98,77,-1,77,98,99,-1,77,99,76,-1,76,99,100,-1,76,100,75,-1,74,75,101,-1,101,75,100,-1,73,74,86,-1,86,74,101,-1,102,103,104,-1,104,103,105,-1,103,106,105,-1,105,106,107,-1,106,108,107,-1,107,108,109,-1,108,110,109,-1,109,110,111,-1,110,112,111,-1,111,112,113,-1,112,114,113,-1,113,114,115,-1,114,116,115,-1,115,116,117,-1,116,118,117,-1,117,118,119,-1,118,120,119,-1,119,120,121,-1,120,122,121,-1,121,122,123,-1,122,124,123,-1,123,124,125,-1,124,102,125,-1,125,102,104,-1,106,103,102,-1,102,124,106,-1,106,124,122,-1,106,122,108,-1,112,110,114,-1,114,110,108,-1,114,108,116,-1,116,108,122,-1,116,122,118,-1,118,122,120,-1,126,127,128,-1,128,127,129,-1,129,127,130,-1,131,132,133,-1,131,133,134,-1,134,133,135,-1,134,135,130,-1,130,135,136,-1,130,136,129,-1,132,131,137,-1,137,131,138,-1,137,138,139,-1,139,138,140,-1,139,140,141,-1,141,140,142,-1,141,142,143,-1,143,142,144,-1,143,144,145,-1,145,144,146,-1,145,146,147,-1,147,146,148,-1,147,148,149,-1,149,148,150,-1,149,150,151,-1,152,153,154,-1,152,154,155,-1,155,154,156,-1,155,156,157,-1,157,156,158,-1,157,158,159,-1,159,158,160,-1,159,160,161,-1,161,160,162,-1,161,162,163,-1,163,162,164,-1,163,164,165,-1,165,164,151,-1,165,151,150,-1,166,167,168,-1,166,168,169,-1,169,168,153,-1,169,153,152,-1,166,170,167,-1,167,170,171,-1,172,173,174,-1,172,174,175,-1,175,174,171,-1,175,171,170,-1,176,177,178,-1,176,178,179,-1,179,178,180,-1,179,180,181,-1,181,180,182,-1,181,182,183,-1,183,182,184,-1,183,184,185,-1,185,184,186,-1,185,186,187,-1,187,186,188,-1,187,188,189,-1,189,188,173,-1,189,173,172,-1,190,191,192,-1,190,192,193,-1,193,192,194,-1,193,194,195,-1,195,194,196,-1,195,196,197,-1,197,196,198,-1,197,198,199,-1,199,198,200,-1,199,200,201,-1,201,200,202,-1,201,202,203,-1,203,202,177,-1,203,177,176,-1,126,128,204,-1,126,204,205,-1,205,204,206,-1,205,206,207,-1,207,206,191,-1,207,191,190,-1,193,131,190,-1,190,131,134,-1,190,134,207,-1,207,134,130,-1,207,130,205,-1,205,130,127,-1,205,127,126,-1,170,166,175,-1,175,166,169,-1,175,169,172,-1,172,169,152,-1,172,152,189,-1,189,152,155,-1,189,155,187,-1,187,155,157,-1,187,157,185,-1,185,157,159,-1,185,159,183,-1,183,159,161,-1,183,161,181,-1,181,161,163,-1,181,163,179,-1,179,163,165,-1,179,165,176,-1,176,165,150,-1,176,150,203,-1,203,150,148,-1,203,148,201,-1,201,148,146,-1,201,146,199,-1,199,146,144,-1,199,144,197,-1,197,144,142,-1,197,142,195,-1,195,142,140,-1,195,140,193,-1,193,140,138,-1,193,138,131,-1,208,209,210,-1,210,209,211,-1,209,212,211,-1,211,212,213,-1,212,214,213,-1,213,214,215,-1,214,216,215,-1,215,216,217,-1,216,218,217,-1,217,218,219,-1,218,208,219,-1,219,208,210,-1,216,214,218,-1,218,214,212,-1,218,212,208,-1,208,212,209,-1,
        ]
    }
}
Shape{
    appearance Appearance {
        material  Material 	{
            diffuseColor 0.25098039215686274 0.25098039215686274 0.25098039215686274
            specularColor 0.12549019607843137 0.12549019607843137 0.12549019607843137
            ambientIntensity 0.251
            transparency 0.0
            shininess 0.5
        }
    }
    geometry IndexedFaceSet {
        ccw TRUE
        solid FALSE
        coord DEF co Coordinate {
            point [
                -0.2321 -0.7297 0.0079, -0.2847 -0.7297 0.0079, -0.2556 -0.6639 0.0079, -0.261 -0.6639 0.0079, -0.2571 -0.6584 0.0079, -0.2596 -0.6584 0.0079, -0.2581 -0.6528 0.0079, -0.2586 -0.6528 0.0079, -0.0715 -0.6509 0.0079, -0.0715 -0.7738 0.0079, -0.0948 -0.6509 0.0079, -0.0939 -0.7738 0.0079, -0.1105 -0.7723 0.0079, -0.156 -0.7109 0.0079, -0.1547 -0.6952 0.0079, -0.151 -0.6827 0.0079, -0.1134 -0.6529 0.0079, -0.1238 -0.7682 0.0079, -0.1345 -0.7618 0.0079, -0.1433 -0.7531 0.0079, -0.15 -0.7422 0.0079, -0.1546 -0.7274 0.0079, -0.1456 -0.673 0.0079, -0.1379 -0.6649 0.0079, -0.1264 -0.6575 0.0079
            ]
        }
        coordIndex [
            0,1,2,-1,2,1,3,-1,2,3,4,-1,4,3,5,-1,4,5,6,-1,6,5,7,-1,8,9,10,-1,10,9,11,-1,10,11,12,-1,13,14,10,-1,10,14,15,-1,10,15,16,-1,12,17,10,-1,10,17,18,-1,10,18,19,-1,19,20,10,-1,10,20,21,-1,10,21,13,-1,22,23,15,-1,15,23,24,-1,15,24,16,-1,
        ]
    }
}